<svg width="300" height="160" viewBox="0 0 300 160" fill="none" xmlns="http://www.w3.org/2000/svg">
<mask id="mask0_12414_18872" style="mask-type:alpha" maskUnits="userSpaceOnUse" x="-1" y="-1" width="302" height="162">
<path fill-rule="evenodd" clip-rule="evenodd" d="M0 20C0 8.95431 8.95431 0 20 0H280C291.046 0 300 8.95431 300 20V140C300 151.046 291.046 160 280 160H20C8.9543 160 0 151.046 0 140V20Z" fill="white" stroke="white" stroke-width="2"/>
</mask>
<g mask="url(#mask0_12414_18872)">
<rect x="88" y="39" width="125" height="82" rx="5" fill="#B9C5C7"/>
</g>
<path d="M128.188 76.3009C132.459 71.7872 132.347 64.6557 127.936 60.281C123.525 55.9063 116.447 55.9063 112.036 60.281C107.625 64.6557 107.513 71.7872 111.783 76.3009C106.367 79.3143 103.003 85.0552 103 91.2899V94.1449C103 95.7217 104.269 97 105.833 97H134.167C135.731 97 137 95.7217 137 94.1449V91.2899C136.992 85.0492 133.616 79.3068 128.188 76.3009Z" fill="white"/>
<path d="M189.125 62H148.875C147.287 62 146 63.3431 146 65C146 66.6569 147.287 68 148.875 68H189.125C190.713 68 192 66.6569 192 65C192 63.3431 190.713 62 189.125 62Z" fill="white"/>
<path d="M194.167 86H148.833C147.269 86 146 87.3431 146 89C146 90.6569 147.269 92 148.833 92H194.167C195.731 92 197 90.6569 197 89C197 87.3431 195.731 86 194.167 86Z" fill="white"/>
<path d="M184.182 74H148.818C147.262 74 146 75.3431 146 77C146 78.6569 147.262 80 148.818 80H184.182C185.738 80 187 78.6569 187 77C187 75.3431 185.738 74 184.182 74Z" fill="white"/>
<circle cx="210" cy="39" r="13" fill="#8A989B"/>
<path fill-rule="evenodd" clip-rule="evenodd" d="M217 40H211V46H209V40H203V38H209V32H211V38H217V40Z" fill="white"/>
</svg>
